<svg width="385" height="256" viewBox="0 0 385 256" fill="none" xmlns="http://www.w3.org/2000/svg">
<path d="M188.33 0.03125L188.501 135.469L138.888 9.47925L172.797 140.57L93.333 30.9006L158.856 149.41L54.5303 62.9459L147.546 161.426L24.9196 103.605L139.586 175.869L6.35696 150.322L135.469 191.829L0.015625 200.165L135.456 208.309L6.28763 249.997L139.549 224.263L24.781 296.687L147.493 238.695L54.3356 337.309L158.784 250.698L93.093 369.301L172.717 259.514L138.616 390.653L188.41 264.594L188.05 400.031L204.885 265.618L238.282 396.842L221.104 262.522L286.16 381.285L236.042 255.495L328.672 354.341L248.77 244.986L363.152 317.698L258.485 231.647L387.429 273.661L264.57 216.327L399.978 224.999L266.653 199.975L400.016 174.765L264.592 183.634L387.533 126.122L258.528 168.317L363.317 82.1192L248.834 154.994L328.888 45.5246L236.125 144.501L286.413 18.6419L221.192 137.495L238.56 3.15125L204.978 134.421L188.33 0.03125Z" fill="#FFC3A0"/>
</svg>
