<svg width="401" height="257" viewBox="0 0 401 257" fill="none" xmlns="http://www.w3.org/2000/svg">
<g clip-path="url(#clip0)">
<path d="M206.33 -210.969L206.501 -75.5314L156.888 -201.521L190.797 -70.4301L111.333 -180.099L176.856 -61.5901L72.5303 -148.054L165.546 -49.5741L42.9196 -107.395L157.586 -35.1314L24.357 -60.6781L153.469 -19.1714L18.0156 -10.8354L153.456 -2.69141L24.2876 38.9966L157.549 13.2632L42.781 85.6873L165.493 27.6953L72.3356 126.309L176.784 39.6979L111.093 158.301L190.717 48.5139L156.616 179.653L206.41 53.5939L206.05 189.031L222.885 54.6179L256.282 185.842L239.104 51.5219L304.16 170.285L254.042 44.4953L346.672 143.341L266.77 33.9859L381.152 106.698L276.485 20.6473L405.429 62.6606L282.57 5.32726L417.978 13.9993L284.653 -11.0247L418.016 -36.2354L282.592 -27.3661L405.533 -84.8781L276.528 -42.6834L381.317 -128.881L266.834 -56.0061L346.888 -165.475L254.125 -66.4994L304.413 -192.358L239.192 -73.5047L256.56 -207.849L222.978 -76.5794L206.33 -210.969Z" fill="#FFC3A0"/>
</g>
<defs>
<clipPath id="clip0">
<rect width="400" height="400" fill="white" transform="translate(0.015625 -143.969)"/>
</clipPath>
</defs>
</svg>
